<?xml version="1.0" encoding="UTF-8" standalone="no"?>
<!DOCTYPE svg PUBLIC "-//W3C//DTD SVG 1.1//EN" "http://www.w3.org/Graphics/SVG/1.1/DTD/svg11.dtd">
<svg width="100%" height="100%" viewBox="0 0 30 30" version="1.1" xmlns="http://www.w3.org/2000/svg" xmlns:xlink="http://www.w3.org/1999/xlink" xml:space="preserve" xmlns:serif="http://www.serif.com/" style="fill-rule:evenodd;clip-rule:evenodd;stroke-linejoin:round;stroke-miterlimit:2;">
    <g transform="matrix(1,0,0,1,-122.447,-175)">
        <g>
            <g transform="matrix(1.15654,0,0,1.15654,-21.5157,-29.7422)">
                <circle cx="137.447" cy="190" r="12.97" style="fill:rgb(201,145,255);"/>
            </g>
            <g transform="matrix(1,0,0,1,-2.55283,-5)">
                <path d="M140,180C148.279,180 155,186.721 155,195C155,203.279 148.279,210 140,210C131.721,210 125,203.279 125,195C125,186.721 131.721,180 140,180ZM140,182.03C132.842,182.03 127.03,187.842 127.03,195C127.03,202.158 132.842,207.97 140,207.97C147.158,207.97 152.97,202.158 152.97,195C152.97,187.842 147.158,182.03 140,182.03Z"/>
            </g>
            <g id="nerd-face_1f913.svg" transform="matrix(0.0585938,0,0,0.0585938,137.447,190)">
                <g transform="matrix(1,0,0,1,-256,-256)">
                    <g transform="matrix(1,0,0,1,12.9426,0)">
                        <g transform="matrix(0.985738,0,0,0.985738,-196.072,3.03816)">
                            <circle cx="356.231" cy="213.021" r="73.021" style="fill:white;"/>
                        </g>
                        <g transform="matrix(0.42407,0,0,0.42407,8.93315,122.698)">
                            <circle cx="356.231" cy="213.021" r="73.021"/>
                        </g>
                    </g>
                    <g transform="matrix(1,0,0,1,-8.21009,0)">
                        <g transform="matrix(0.985738,0,0,0.985738,5.08066,3.03816)">
                            <circle cx="356.231" cy="213.021" r="73.021" style="fill:white;"/>
                        </g>
                        <g transform="matrix(0.42407,0,0,0.42407,197.967,122.698)">
                            <circle cx="356.231" cy="213.021" r="73.021"/>
                        </g>
                    </g>
                    <path d="M149.278,333.387C148.421,328.725 149.68,323.922 152.714,320.28C155.748,316.637 160.244,314.531 164.984,314.531C206.628,314.5 304.164,314.5 345.906,314.5C350.637,314.5 355.126,316.594 358.166,320.22C361.207,323.846 362.486,328.631 361.661,333.29C354.967,371.383 332.614,398.625 294.5,415C248.017,430.706 207.851,420.872 174,385.5C160.921,369.956 152.681,352.585 149.278,333.387Z"/>
                </g>
            </g>
        </g>
    </g>
</svg>
