<?xml version="1.0" encoding="UTF-8" standalone="no"?>
<!DOCTYPE svg PUBLIC "-//W3C//DTD SVG 1.1//EN" "http://www.w3.org/Graphics/SVG/1.1/DTD/svg11.dtd">
<svg width="100%" height="100%" viewBox="0 0 30 30" version="1.1" xmlns="http://www.w3.org/2000/svg" xmlns:xlink="http://www.w3.org/1999/xlink" xml:space="preserve" xmlns:serif="http://www.serif.com/" style="fill-rule:evenodd;clip-rule:evenodd;stroke-linejoin:round;stroke-miterlimit:2;">
    <g transform="matrix(1,0,0,1,-232.617,-174.502)">
        <g transform="matrix(1,0,0,1,110.17,-0.498227)">
            <g transform="matrix(1.15654,0,0,1.15654,-21.5157,-29.7422)">
                <circle cx="137.447" cy="190" r="12.97" style="fill:rgb(201,145,255);"/>
            </g>
            <g transform="matrix(1,0,0,1,-2.55283,-5)">
                <path d="M140,180C148.279,180 155,186.721 155,195C155,203.279 148.279,210 140,210C131.721,210 125,203.279 125,195C125,186.721 131.721,180 140,180ZM140,182.03C132.842,182.03 127.03,187.842 127.03,195C127.03,202.158 132.842,207.97 140,207.97C147.158,207.97 152.97,202.158 152.97,195C152.97,187.842 147.158,182.03 140,182.03Z"/>
            </g>
            <g id="face-screaming-in-fear_1f631.svg" transform="matrix(0.0585937,0,0,0.0585937,137.447,190)">
                <g transform="matrix(1,0,0,1,-256,-256)">
                    <g>
                        <path d="M470.5,220.5C327.167,178.403 183.833,178.676 40.5,220.5C46.942,152.065 78.942,99.565 136.5,63C173.727,43.52 213.394,34.02 255.5,34.5C297.671,33.793 337.338,43.293 374.5,63C432.058,99.565 464.058,152.065 470.5,220.5Z" style="fill:rgb(80,146,255);fill-opacity:0.99;"/>
                    </g>
                    <g transform="matrix(0.912133,0,0,0.884686,22.54,33.2269)">
                        <path d="M171.32,448.489C168.974,453.34 165.964,457.819 162.381,461.786C147.738,478.08 129.164,484.704 106.665,481.665C103.292,481.211 99.967,480.435 96.734,479.345C90.418,477.21 84.502,474.276 78.989,470.525C76.981,469.156 75.129,467.556 73.469,465.756C62.285,453.659 51.419,441.303 40.85,428.711C39.016,426.524 37.348,424.195 35.859,421.745C31.046,413.709 27.434,405.151 25.067,396.04C24.401,393.46 23.989,390.816 23.839,388.15C22.826,370.503 22.39,352.827 22.499,335.122C22.5,335.047 22.5,334.971 22.501,334.896C22.655,319.614 22.81,304.332 22.964,289.05C23.004,285.075 24.16,281.197 26.292,277.885C28.891,273.868 32.585,270.882 37.378,268.931C38.073,268.65 38.791,268.437 39.523,268.292C47.778,266.683 54.711,268.039 60.32,272.356C65.019,275.973 68.083,281.411 68.803,287.411C69.309,291.879 69.664,296.368 69.852,300.878C70.014,305.106 71.172,309.23 73.224,312.894C73.563,313.474 73.898,314.057 74.239,314.636C75.32,316.458 76.771,318.018 78.491,319.207C102.737,335.964 152.796,370.496 163.281,378.988C165.007,380.766 166.536,382.735 167.842,384.86C180.696,405.673 181.85,426.886 171.32,448.489Z"/>
                        <path d="M45.354,289.987L44.881,290.162L44.881,290.152C45.024,290.092 45.19,290.048 45.354,289.987ZM44.88,290.225C45.712,290.053 46.444,289.983 47.063,290.374C47.476,294.063 47.78,297.914 47.943,301.783C48.256,309.702 50.415,317.378 54.237,324.2C54.304,324.321 54.373,324.441 54.443,324.56C54.795,325.163 55.144,325.77 55.499,326.373C55.51,326.392 55.522,326.412 55.533,326.431C58.265,331.037 61.933,334.979 66.282,337.985C89.287,353.884 135.934,386.01 148.485,395.775C148.788,396.152 149.066,396.547 149.319,396.959C149.328,396.973 149.337,396.988 149.346,397.002C157.698,410.525 158.57,424.301 151.728,438.337C151.717,438.359 151.706,438.382 151.695,438.404C150.289,441.315 148.483,444.001 146.333,446.381C146.321,446.394 146.309,446.408 146.297,446.421C136.653,457.153 124.332,461.251 109.513,459.249L109.501,459.248C107.481,458.976 105.49,458.511 103.554,457.86C99.115,456.358 94.954,454.3 91.079,451.665C90.453,451.238 89.877,450.74 89.36,450.18L89.341,450.159C78.401,438.325 67.773,426.24 57.435,413.923C56.365,412.646 55.389,411.29 54.515,409.864C50.815,403.677 48.058,397.155 46.252,390.211C45.968,389.107 45.793,387.977 45.729,386.837L45.727,386.814C44.742,369.66 44.319,352.477 44.425,335.267C44.426,335.222 44.426,335.177 44.427,335.132C44.578,320.163 44.729,305.194 44.88,290.225Z" style="fill:rgb(201,145,255);"/>
                        <g transform="matrix(-1,0,0,1,513.047,0)">
                            <path d="M171.32,448.489C168.974,453.34 165.964,457.819 162.381,461.786C147.738,478.08 129.164,484.704 106.665,481.665C103.292,481.211 99.967,480.435 96.734,479.345C90.418,477.21 84.502,474.276 78.989,470.525C76.981,469.156 75.129,467.556 73.469,465.756C62.285,453.659 51.419,441.303 40.85,428.711C39.016,426.524 37.348,424.195 35.859,421.745C31.046,413.709 27.434,405.151 25.067,396.04C24.401,393.46 23.989,390.816 23.839,388.15C22.826,370.503 22.39,352.827 22.499,335.122C22.5,335.047 22.5,334.971 22.501,334.896C22.655,319.614 22.81,304.332 22.964,289.05C23.004,285.075 24.16,281.197 26.292,277.885C28.891,273.868 32.585,270.882 37.378,268.931C38.073,268.65 38.791,268.437 39.523,268.292C47.778,266.683 54.711,268.039 60.32,272.356C65.019,275.973 68.083,281.411 68.803,287.411C69.309,291.879 69.664,296.368 69.852,300.878C70.014,305.106 71.172,309.23 73.224,312.894C73.563,313.474 73.898,314.057 74.239,314.636C75.32,316.458 76.771,318.018 78.491,319.207C102.737,335.964 152.796,370.496 163.281,378.988C165.007,380.766 166.536,382.735 167.842,384.86C180.696,405.673 181.85,426.886 171.32,448.489Z"/>
                        </g>
                        <g transform="matrix(-1,0,0,1,512.956,0)">
                            <path d="M44.88,290.225C44.729,305.194 44.578,320.163 44.427,335.132C44.426,335.177 44.426,335.222 44.425,335.267C44.319,352.477 44.742,369.66 45.727,386.814L45.729,386.837C45.793,387.972 45.967,389.097 46.248,390.196C48.053,397.135 50.799,403.639 54.447,409.752C55.362,411.252 56.35,412.629 57.435,413.923C67.773,426.24 78.401,438.325 89.341,450.159L89.36,450.18C89.877,450.74 90.453,451.238 91.079,451.665C94.954,454.3 99.115,456.358 103.554,457.86C105.49,458.511 107.481,458.976 109.501,459.248L109.513,459.249C124.332,461.251 136.653,457.153 146.297,446.421C146.309,446.408 146.321,446.394 146.333,446.381C148.483,444.001 150.289,441.315 151.695,438.404C151.706,438.382 151.717,438.359 151.728,438.337C158.57,424.301 157.698,410.525 149.346,397.002C149.337,396.988 149.328,396.973 149.319,396.959C149.067,396.547 148.789,396.153 148.488,395.779C135.933,386.009 89.287,353.884 66.282,337.985C61.933,334.979 58.265,331.037 55.533,326.431C55.522,326.412 55.51,326.392 55.499,326.373C55.144,325.77 54.795,325.163 54.443,324.56C54.373,324.441 54.304,324.321 54.237,324.2C50.415,317.378 48.256,309.702 47.945,301.831C47.784,297.994 47.486,294.176 47.062,290.374C46.438,289.98 45.7,290.054 44.88,290.225Z" style="fill:rgb(201,145,255);"/>
                        </g>
                    </g>
                    <g transform="matrix(0.985738,0,0,0.985738,-180.987,-28.0739)">
                        <circle cx="356.231" cy="213.021" r="73.021" style="fill:white;"/>
                    </g>
                    <ellipse cx="255.5" cy="360.224" rx="61.5" ry="77.124"/>
                    <g transform="matrix(0.985738,0,0,0.985738,-10.5381,-28.0739)">
                        <circle cx="356.231" cy="213.021" r="73.021" style="fill:white;"/>
                    </g>
                    <g transform="matrix(0.42407,0,0,0.42407,24.0182,91.5864)">
                        <circle cx="356.231" cy="213.021" r="73.021"/>
                    </g>
                    <g transform="matrix(0.42407,0,0,0.42407,182.349,91.5864)">
                        <circle cx="356.231" cy="213.021" r="73.021"/>
                    </g>
                </g>
            </g>
        </g>
    </g>
</svg>
