<?xml version="1.0" encoding="UTF-8" standalone="no"?>
<!DOCTYPE svg PUBLIC "-//W3C//DTD SVG 1.1//EN" "http://www.w3.org/Graphics/SVG/1.1/DTD/svg11.dtd">
<svg width="100%" height="100%" viewBox="0 0 30 30" version="1.1" xmlns="http://www.w3.org/2000/svg" xmlns:xlink="http://www.w3.org/1999/xlink" xml:space="preserve" xmlns:serif="http://www.serif.com/" style="fill-rule:evenodd;clip-rule:evenodd;stroke-linejoin:round;stroke-miterlimit:2;">
    <g transform="matrix(1,0,0,1,-285,-174.502)">
        <g transform="matrix(1,0,0,1,162.553,-0.498227)">
            <g transform="matrix(1.15654,0,0,1.15654,-21.5157,-29.7422)">
                <circle cx="137.447" cy="190" r="12.97" style="fill:rgb(201,145,255);"/>
            </g>
            <g transform="matrix(1,0,0,1,-2.55283,-5)">
                <path d="M140,180C148.279,180 155,186.721 155,195C155,203.279 148.279,210 140,210C131.721,210 125,203.279 125,195C125,186.721 131.721,180 140,180ZM140,182.03C132.842,182.03 127.03,187.842 127.03,195C127.03,202.158 132.842,207.97 140,207.97C147.158,207.97 152.97,202.158 152.97,195C152.97,187.842 147.158,182.03 140,182.03Z"/>
            </g>
            <g id="exploding-head_1f92f.svg" transform="matrix(0.0585938,0,0,0.0585938,137.447,190)">
                <g transform="matrix(1,0,0,1,-256,-256)">
                    <path d="M23,262.5C23,134.18 127.18,30 255.5,30C383.82,30 488,134.18 488,262.5C488,262.537 23,262.5 23,262.5Z"/>
                    <g>
                        <g>
                            <g>
                                <path d="M267.5,20.5C271.977,26.621 274.643,33.454 275.5,41C274.649,49.555 271.815,57.388 267,64.5C265.542,68.781 266.708,71.947 270.5,74C281.85,75.576 289.683,71.076 294,60.5C294.499,54.843 294.666,49.176 294.5,43.5C320.941,30.822 346.941,31.656 372.5,46C378.954,50.051 384.288,55.218 388.5,61.5C389.248,63.333 390.248,64.999 391.5,66.5C393.626,80.324 390.46,92.991 382,104.5C376.421,108.891 372.254,114.224 369.5,120.5C369.464,123.301 370.797,125.135 373.5,126C382.409,126.979 389.742,124.146 395.5,117.5C395.052,123.391 397.719,127.058 403.5,128.5C405.885,130.884 407.885,133.55 409.5,136.5C413.557,156.218 406.557,170.385 388.5,179C384.5,179.667 380.5,179.667 376.5,179C374.466,170.608 372.633,162.108 371,153.5C369.92,151.004 368.586,148.67 367,146.5C368.229,187.604 348.395,207.77 307.5,207C297.636,204.826 289.469,199.993 283,192.5C278.299,181.672 280.133,172.172 288.5,164C290.717,162.725 293.051,161.725 295.5,161C304.167,160.667 312.833,160.333 321.5,160C331.409,157.341 334.909,151.175 332,141.5C323.981,132.409 314.148,129.576 302.5,133C291.537,136.962 283.37,144.129 278,154.5C272.586,164.331 266.919,173.998 261,183.5C245.716,198.956 227.216,204.789 205.5,201C190.734,197.538 178.901,189.704 170,177.5C163.67,167.839 158.67,157.506 155,146.5C153.128,149.873 152.295,153.54 152.5,157.5C152.974,165.014 154.308,172.347 156.5,179.5C135.697,183.516 117.53,178.516 102,164.5C101.601,164.728 101.435,165.062 101.5,165.5C97.671,151.48 100.004,138.48 108.5,126.5C110.5,123.833 112.833,121.5 115.5,119.5C118.267,119.13 120.267,117.796 121.5,115.5C126.376,120.737 132.376,122.903 139.5,122C143.126,119.749 144.293,116.582 143,112.5C131.937,98.581 128.27,82.914 132,65.5C134.955,59.726 138.788,54.726 143.5,50.5C152.053,46.657 161.053,44.99 170.5,45.5C176.23,45.604 181.897,46.271 187.5,47.5C188.416,47.457 189.083,47.124 189.5,46.5C203.872,21.319 225.538,11.152 254.5,16C259.038,17.012 263.371,18.512 267.5,20.5Z" style="fill:white;"/>
                                <path d="M267.5,20.5C279.917,24.257 288.917,31.924 294.5,43.5C294.666,49.176 294.499,54.843 294,60.5C289.683,71.076 281.85,75.576 270.5,74C266.708,71.947 265.542,68.781 267,64.5C271.815,57.388 274.649,49.555 275.5,41C274.643,33.454 271.977,26.621 267.5,20.5Z" style="fill-opacity:0.98;"/>
                                <path d="M143.5,50.5C138.788,54.726 134.955,59.726 132,65.5C128.27,82.914 131.937,98.581 143,112.5C144.293,116.582 143.126,119.749 139.5,122C132.376,122.903 126.376,120.737 121.5,115.5C118.265,108.549 116.931,101.215 117.5,93.5C116.807,85.277 118.474,77.61 122.5,70.5C126.872,61.13 133.872,54.463 143.5,50.5Z" style="fill-opacity:0.99;"/>
                                <path d="M391.5,66.5C400.56,82.836 401.893,99.836 395.5,117.5C389.742,124.146 382.409,126.979 373.5,126C370.797,125.135 369.464,123.301 369.5,120.5C372.254,114.224 376.421,108.891 382,104.5C390.46,92.991 393.626,80.324 391.5,66.5Z"/>
                                <path d="M409.5,136.5C410.5,136.833 411.167,137.5 411.5,138.5C420.525,156.284 417.191,171.451 401.5,184C389.812,189.945 377.479,192.111 364.5,190.5C362.164,195.175 359.331,199.508 356,203.5C345.468,212.181 333.301,216.848 319.5,217.5L319.5,243.5C310.3,248.372 302.3,254.705 295.5,262.5L281.5,262.5C281.666,252.494 281.5,242.494 281,232.5C278.081,226.975 273.581,225.142 267.5,227C265.714,227.785 264.214,228.951 263,230.5C261.575,237.385 261.075,244.385 261.5,251.5L242.5,251.5C242.828,240.654 242.494,229.987 241.5,219.5C237.798,214.193 233.964,214.193 230,219.5C229.5,233.829 229.333,248.163 229.5,262.5L215.5,262.5C209.289,254.279 201.623,247.946 192.5,243.5L192.5,211.5C179.784,207.616 169.784,200.116 162.5,189C161.167,188.333 159.833,188.333 158.5,189C152.267,192.391 145.6,193.891 138.5,193.5C119.219,193.206 106.886,183.873 101.5,165.5C101.435,165.062 101.601,164.728 102,164.5C117.53,178.516 135.697,183.516 156.5,179.5C154.308,172.347 152.974,165.014 152.5,157.5C152.295,153.54 153.128,149.873 155,146.5C158.67,157.506 163.67,167.839 170,177.5C178.901,189.704 190.734,197.538 205.5,201C227.216,204.789 245.716,198.956 261,183.5C266.919,173.998 272.586,164.331 278,154.5C283.37,144.129 291.537,136.962 302.5,133C314.148,129.576 323.981,132.409 332,141.5C334.909,151.175 331.409,157.341 321.5,160C312.833,160.333 304.167,160.667 295.5,161C293.051,161.725 290.717,162.725 288.5,164C280.133,172.172 278.299,181.672 283,192.5C289.469,199.993 297.636,204.826 307.5,207C348.395,207.77 368.229,187.604 367,146.5C368.586,148.67 369.92,151.004 371,153.5C372.633,162.108 374.466,170.608 376.5,179C380.5,179.667 384.5,179.667 388.5,179C406.557,170.385 413.557,156.218 409.5,136.5Z"/>
                            </g>
                            <path d="M241.5,219.5L241.5,262.5L229.5,262.5C229.333,248.163 229.5,233.829 230,219.5C233.964,214.193 237.798,214.193 241.5,219.5Z" style="fill:rgb(201,145,255);"/>
                            <path d="M281.5,262.5L261.5,262.5L261.5,251.5C261.075,244.385 261.575,237.385 263,230.5C264.214,228.951 265.714,227.785 267.5,227C273.581,225.142 278.081,226.975 281,232.5C281.5,242.494 281.666,252.494 281.5,262.5Z" style="fill:rgb(201,145,255);"/>
                        </g>
                        <g>
                            <path d="M189.5,46.5C189.083,47.124 188.416,47.457 187.5,47.5C181.897,46.271 176.23,45.604 170.5,45.5L167.5,17.5L189.5,46.5Z" style="fill:rgb(240,90,36);fill-opacity:0.88;"/>
                            <path d="M189.5,46.5C189.083,47.124 188.416,47.457 187.5,47.5C181.897,46.271 176.23,45.604 170.5,45.5L167.5,17.5L189.5,46.5Z" style="fill:rgb(240,90,36);fill-opacity:0.88;"/>
                            <path d="M189.5,46.5C189.083,47.124 188.416,47.457 187.5,47.5C181.897,46.271 176.23,45.604 170.5,45.5L167.5,17.5L189.5,46.5Z" style="fill:rgb(240,90,36);fill-opacity:0.88;"/>
                            <path d="M189.5,46.5C189.083,47.124 188.416,47.457 187.5,47.5C181.897,46.271 176.23,45.604 170.5,45.5L167.5,17.5L189.5,46.5Z" style="fill:rgb(240,90,36);fill-opacity:0.88;"/>
                            <path d="M414,60C414,60 395.052,123.391 395.5,117.5C401.893,99.836 400.56,82.836 391.5,66.5C390.248,64.999 389.248,63.333 388.5,61.5L414,60Z" style="fill:rgb(239,90,39);fill-opacity:0.83;"/>
                            <path d="M414,60C414,60 395.052,123.391 395.5,117.5C401.893,99.836 400.56,82.836 391.5,66.5C390.248,64.999 389.248,63.333 388.5,61.5L414,60Z" style="fill:rgb(239,90,39);fill-opacity:0.83;"/>
                            <path d="M414,60C414,60 395.052,123.391 395.5,117.5C401.893,99.836 400.56,82.836 391.5,66.5C390.248,64.999 389.248,63.333 388.5,61.5L414,60Z" style="fill:rgb(239,90,39);fill-opacity:0.83;"/>
                            <path d="M414,60C414,60 395.052,123.391 395.5,117.5C401.893,99.836 400.56,82.836 391.5,66.5C390.248,64.999 389.248,63.333 388.5,61.5L414,60Z" style="fill:rgb(239,90,39);fill-opacity:0.83;"/>
                            <path d="M414,60C414,60 395.052,123.391 395.5,117.5C401.893,99.836 400.56,82.836 391.5,66.5C390.248,64.999 389.248,63.333 388.5,61.5L414,60Z" style="fill:rgb(239,90,39);fill-opacity:0.83;"/>
                            <path d="M414,60C414,60 395.052,123.391 395.5,117.5C401.893,99.836 400.56,82.836 391.5,66.5C390.248,64.999 389.248,63.333 388.5,61.5L414,60Z" style="fill:rgb(239,90,39);fill-opacity:0.83;"/>
                            <path d="M122.5,70.5C118.474,77.61 116.807,85.277 117.5,93.5C116.931,101.215 118.265,108.549 121.5,115.5C120.267,117.796 118.267,119.13 115.5,119.5L95,60L122.5,70.5Z" style="fill:rgb(240,90,37);fill-opacity:0.94;"/>
                            <path d="M122.5,70.5C118.474,77.61 116.807,85.277 117.5,93.5C116.931,101.215 118.265,108.549 121.5,115.5C120.267,117.796 118.267,119.13 115.5,119.5L95,60L122.5,70.5Z" style="fill:rgb(240,90,37);fill-opacity:0.94;"/>
                            <path d="M122.5,70.5C118.474,77.61 116.807,85.277 117.5,93.5C116.931,101.215 118.265,108.549 121.5,115.5C120.267,117.796 118.267,119.13 115.5,119.5L95,60L122.5,70.5Z" style="fill:rgb(240,90,37);fill-opacity:0.94;"/>
                            <path d="M108.5,126.5C100.004,138.48 97.671,151.48 101.5,165.5C106.886,183.873 119.219,193.206 138.5,193.5C145.6,193.891 152.267,192.391 158.5,189C159.833,188.333 161.167,188.333 162.5,189C169.784,200.116 179.784,207.616 192.5,211.5L192.5,243.5C162.28,231.805 136.613,238.139 115.5,262.5L71.5,262.5C83.763,252.352 96.096,242.185 108.5,232C100.839,228.279 92.839,225.446 84.5,223.5C89.347,216.368 89.68,209.035 85.5,201.5C83.445,199.445 81.112,197.779 78.5,196.5C77.526,194.257 77.192,191.924 77.5,189.5C87.898,188.1 98.231,186.267 108.5,184L40,125L108.5,126.5Z" style="fill:rgb(240,90,36);fill-opacity:0.98;"/>
                            <path d="M108.5,126.5C100.004,138.48 97.671,151.48 101.5,165.5C106.886,183.873 119.219,193.206 138.5,193.5C145.6,193.891 152.267,192.391 158.5,189C159.833,188.333 161.167,188.333 162.5,189C169.784,200.116 179.784,207.616 192.5,211.5L192.5,243.5C162.28,231.805 136.613,238.139 115.5,262.5L71.5,262.5C83.763,252.352 96.096,242.185 108.5,232C100.839,228.279 92.839,225.446 84.5,223.5C89.347,216.368 89.68,209.035 85.5,201.5C83.445,199.445 81.112,197.779 78.5,196.5C77.526,194.257 77.192,191.924 77.5,189.5C87.898,188.1 98.231,186.267 108.5,184L40,125L108.5,126.5Z" style="fill:rgb(240,90,36);fill-opacity:0.98;"/>
                            <path d="M108.5,126.5C100.004,138.48 97.671,151.48 101.5,165.5C106.886,183.873 119.219,193.206 138.5,193.5C145.6,193.891 152.267,192.391 158.5,189C159.833,188.333 161.167,188.333 162.5,189C169.784,200.116 179.784,207.616 192.5,211.5L192.5,243.5C162.28,231.805 136.613,238.139 115.5,262.5L71.5,262.5C83.763,252.352 96.096,242.185 108.5,232C100.839,228.279 92.839,225.446 84.5,223.5C89.347,216.368 89.68,209.035 85.5,201.5C83.445,199.445 81.112,197.779 78.5,196.5C77.526,194.257 77.192,191.924 77.5,189.5C87.898,188.1 98.231,186.267 108.5,184L40,125L108.5,126.5Z" style="fill:rgb(240,90,36);fill-opacity:0.98;"/>
                            <path d="M481.5,211.5C478.872,198.343 470.872,192.843 457.5,195C451.448,197.263 447.281,201.43 445,207.5C434.995,212.998 431.495,221.331 434.5,232.5C427.254,235.123 420.254,238.29 413.5,242C421.692,248.698 429.692,255.531 437.5,262.5L395.5,262.5C381.12,244.755 362.453,236.588 339.5,238C332.456,238.594 325.789,240.427 319.5,243.5L319.5,217.5C333.301,216.848 345.468,212.181 356,203.5C359.331,199.508 362.164,195.175 364.5,190.5C377.479,192.111 389.812,189.945 401.5,184C417.191,171.451 420.525,156.284 411.5,138.5L474,134L437.5,158C430.787,161.683 424.454,165.85 418.5,170.5C444.327,181.887 470.327,192.887 496.5,203.5C497.833,204.167 497.833,204.833 496.5,205.5C491.591,207.79 486.591,209.79 481.5,211.5Z" style="fill:rgb(240,90,36);fill-opacity:0.98;"/>
                            <path d="M49.5,195.5C50.234,196.708 50.567,198.041 50.5,199.5C43.894,200.104 39.227,203.438 36.5,209.5C28.812,207.494 21.145,205.327 13.5,203C25.421,200.182 37.421,197.682 49.5,195.5Z" style="fill:rgb(239,91,37);fill-opacity:0.88;"/>
                            <path d="M49.5,195.5C50.234,196.708 50.567,198.041 50.5,199.5C43.894,200.104 39.227,203.438 36.5,209.5C28.812,207.494 21.145,205.327 13.5,203C25.421,200.182 37.421,197.682 49.5,195.5Z" style="fill:rgb(239,91,37);fill-opacity:0.88;"/>
                            <path d="M49.5,195.5C50.234,196.708 50.567,198.041 50.5,199.5C43.894,200.104 39.227,203.438 36.5,209.5C28.812,207.494 21.145,205.327 13.5,203C25.421,200.182 37.421,197.682 49.5,195.5Z" style="fill:rgb(239,91,37);fill-opacity:0.88;"/>
                        </g>
                    </g>
                    <g>
                        <path d="M39.653,192.168C40.372,183.852 43.533,178.075 48.026,174.41C53.041,170.319 60.37,168.35 70.296,170.163C70.889,170.271 71.471,170.433 72.036,170.646C79.639,173.52 84.633,178.816 87.043,186.511C87.416,187.701 87.562,188.949 87.476,190.189C89.294,191.436 90.992,192.85 92.571,194.429C93.23,195.088 93.793,195.835 94.245,196.649C100.414,207.77 99.924,218.594 92.771,229.121C92.093,230.118 91.24,230.985 90.253,231.679C83.277,236.586 75.714,238.445 67.557,237.192C58.385,242.646 48.612,242.939 38.234,238.044C37.499,237.698 36.809,237.263 36.179,236.749C26.402,228.774 23.314,218.74 26.916,206.646C27.043,206.22 27.198,205.802 27.381,205.397C30.181,199.172 34.273,194.763 39.653,192.168Z" style="fill-opacity:0.97;"/>
                        <path d="M491.463,210.644C491.692,213.3 491.52,215.892 490.952,218.419C492.627,224.653 492.466,230.331 490.799,235.438C488.835,241.452 484.726,246.856 478.057,251.314C476.94,252.06 475.684,252.574 474.364,252.825C463.527,254.881 452.724,254.5 441.959,251.672C441.431,251.533 440.915,251.351 440.417,251.128C433.686,248.117 428.746,243.377 425.549,236.958C425.252,236.363 425.016,235.74 424.843,235.098C422.675,227.04 423.126,220.013 425.651,214.001C427.818,208.843 431.559,204.298 437.112,200.596C440.655,193.503 446.286,188.517 453.998,185.633C454.616,185.402 455.256,185.233 455.908,185.128C465.655,183.555 473.363,185.258 479.194,189.267C485.06,193.3 489.379,199.894 491.306,209.541C491.379,209.906 491.431,210.274 491.463,210.644Z" style="fill-opacity:0.98;"/>
                        <path d="M77.5,189.5C77.192,191.924 77.526,194.257 78.5,196.5C81.112,197.779 83.445,199.445 85.5,201.5C89.68,209.035 89.347,216.368 84.5,223.5C78.751,227.544 72.417,228.544 65.5,226.5C58.382,232.042 50.716,232.875 42.5,229C36.167,223.834 34.167,217.334 36.5,209.5C39.227,203.438 43.894,200.104 50.5,199.5C50.567,198.041 50.234,196.708 49.5,195.5C49.63,182.878 55.964,177.711 68.5,180C73.056,181.722 76.056,184.889 77.5,189.5Z" style="fill:rgb(201,145,255);fill-opacity:0.97;"/>
                        <path d="M481.5,211.5C481.708,213.92 481.374,216.253 480.5,218.5C484.223,228.779 481.557,236.946 472.5,243C463.136,244.777 453.802,244.444 444.5,242C439.98,239.978 436.647,236.811 434.5,232.5C431.495,221.331 434.995,212.998 445,207.5C447.281,201.43 451.448,197.263 457.5,195C470.872,192.843 478.872,198.343 481.5,211.5Z" style="fill:rgb(201,145,255);fill-opacity:0.98;"/>
                    </g>
                    <path d="M282.5,378.5C296.15,385.818 305.483,396.818 310.5,411.5C311.833,416.833 311.833,422.167 310.5,427.5C308.963,430.9 307.13,434.233 305,437.5C293.666,448.117 280.166,453.784 264.5,454.5L247.5,454.5C242.088,454.209 236.755,453.376 231.5,452C218.752,448.721 209.085,441.555 202.5,430.5C200.004,423.106 200.004,415.773 202.5,408.5C207.844,395.1 216.844,385.1 229.5,378.5C247.156,370.501 264.823,370.501 282.5,378.5Z"/>
                    <g transform="matrix(0.865917,0,0,0.865917,31.6057,115.714)">
                        <g transform="matrix(0.985738,0,0,0.985738,-196.072,3.03816)">
                            <circle cx="356.231" cy="213.021" r="73.021" style="fill:white;"/>
                        </g>
                        <g transform="matrix(0.42407,0,0,0.42407,8.93315,122.698)">
                            <circle cx="356.231" cy="213.021" r="73.021"/>
                        </g>
                    </g>
                    <g transform="matrix(0.865917,0,0,0.865917,38.1687,115.714)">
                        <g transform="matrix(0.985738,0,0,0.985738,5.08066,3.03816)">
                            <circle cx="356.231" cy="213.021" r="73.021" style="fill:white;"/>
                        </g>
                        <g transform="matrix(0.42407,0,0,0.42407,197.967,122.698)">
                            <circle cx="356.231" cy="213.021" r="73.021"/>
                        </g>
                    </g>
                </g>
            </g>
        </g>
    </g>
</svg>
