<?xml version="1.0" encoding="UTF-8" standalone="no"?><!DOCTYPE svg PUBLIC "-//W3C//DTD SVG 1.1//EN" "http://www.w3.org/Graphics/SVG/1.1/DTD/svg11.dtd"><svg width="100%" height="100%" viewBox="0 0 701 208" version="1.1" xmlns="http://www.w3.org/2000/svg" xmlns:xlink="http://www.w3.org/1999/xlink" xml:space="preserve" xmlns:serif="http://www.serif.com/" style="fill-rule:evenodd;clip-rule:evenodd;stroke-linejoin:round;stroke-miterlimit:2;"><g><g><path d="M595.649,7.534c52.571,5.152 93.706,49.535 93.706,103.449l-0,22.569c-0,12.57 -10.19,22.76 -22.76,22.76l-81.189,0l-81.519,-0c-12.57,-0 -22.76,-10.19 -22.76,-22.76l-0,-19.75c0.216,-0.904 0.33,-1.848 0.33,-2.819c0,-57.371 46.578,-103.949 103.949,-103.949c3.456,0 6.873,0.169 10.243,0.499Z" style="fill:#fff;"/><path d="M550.436,156.312c-1.816,-4.798 -3.314,-9.823 -4.461,-15.032l49.624,-24.812l-49.624,-24.812c6.599,-29.99 24.863,-53.875 48.221,-63.358c45.234,4.433 80.628,42.622 80.628,89.012l-0,19.419c-0,10.816 -8.768,19.583 -19.583,19.583l-69.858,0l-34.947,-0Z"/><path d="M700.645,137.836l0,0.012c0.009,0.181 0.013,0.364 0.013,0.547l0,57.713c0,6.209 -5.041,11.25 -11.25,11.25l-8.333,0c-6.209,0 -11.25,-5.041 -11.25,-11.25l0,-6.357c0,-4.198 -3.408,-7.607 -7.607,-7.607l-6.977,-0l-69.858,0l-70.142,-0l-6.977,0c-4.198,0 -7.607,3.408 -7.607,7.607l0,6.357c0,6.209 -5.041,11.25 -11.25,11.25l-8.333,0c-6.209,0 -11.25,-5.041 -11.25,-11.25l0,-57.713c0,-0.189 0.005,-0.378 0.014,-0.543c-0.009,-0.373 -0.014,-0.748 -0.014,-1.123l0,-19.137c0,-0.334 0.033,-0.667 0.1,-0.994l0.196,-0.965c0.898,-62.85 52.201,-113.599 115.263,-113.599c63.622,0 115.275,51.653 115.275,115.275l-0,19.419c-0,0.37 -0.005,0.739 -0.014,1.107Zm-115.261,13.476l69.858,-0c8.054,-0 14.583,-6.529 14.583,-14.583l-0,-19.419c-0,-43.796 -33.412,-79.851 -76.116,-84.036c-2.739,-0.268 -5.517,-0.406 -8.326,-0.406c-46.604,0 -84.441,37.837 -84.441,84.441c0,1.012 -0.098,2.002 -0.284,2.955l0,16.464c0,8.054 6.529,14.583 14.583,14.583l70.142,0Z"/></g><g><path d="M125.825,7.534c52.571,5.152 93.706,49.535 93.706,103.449l-0,22.569c-0,12.57 -10.19,22.76 -22.76,22.76l-81.189,0l-81.519,-0c-12.57,-0 -22.76,-10.19 -22.76,-22.76l-0,-19.75c0.216,-0.904 0.33,-1.848 0.33,-2.819c0,-57.371 46.578,-103.949 103.949,-103.949c3.456,0 6.873,0.169 10.243,0.499Z" style="fill:#fff;"/><path d="M80.612,156.312c-1.816,-4.798 -3.314,-9.823 -4.461,-15.032l49.624,-24.812l-49.624,-24.812c6.599,-29.99 24.863,-53.875 48.221,-63.358c45.234,4.433 80.628,42.622 80.628,89.012l-0,19.419c-0,10.816 -8.768,19.583 -19.583,19.583l-69.858,0l-34.947,-0Z"/><path d="M230.82,137.836l0,0.012c0.009,0.181 0.013,0.364 0.013,0.547l0,57.713c0,6.209 -5.041,11.25 -11.25,11.25l-8.333,0c-6.209,0 -11.25,-5.041 -11.25,-11.25l0,-6.357c0,-4.198 -3.408,-7.607 -7.607,-7.607l-6.977,-0l-69.858,0l-70.142,-0l-6.977,0c-4.198,0 -7.607,3.408 -7.607,7.607l0,6.357c0,6.209 -5.041,11.25 -11.25,11.25l-8.333,0c-6.209,0 -11.25,-5.041 -11.25,-11.25l0,-57.713c0,-0.189 0.005,-0.378 0.014,-0.543c-0.009,-0.373 -0.014,-0.748 -0.014,-1.123l0,-19.137c0,-0.334 0.033,-0.667 0.1,-0.994l0.196,-0.965c0.898,-62.85 52.201,-113.599 115.263,-113.599c63.622,0 115.275,51.653 115.275,115.275l-0,19.419c-0,0.37 -0.005,0.739 -0.014,1.107Zm-115.261,13.476l69.858,-0c8.054,-0 14.583,-6.529 14.583,-14.583l-0,-19.419c-0,-43.796 -33.412,-79.851 -76.116,-84.036c-2.739,-0.268 -5.517,-0.406 -8.326,-0.406c-46.604,0 -84.441,37.837 -84.441,84.441c0,1.012 -0.098,2.002 -0.284,2.955l0,16.464c0,8.054 6.529,14.583 14.583,14.583l70.142,0Z"/></g><path d="M442.666,0c6.073,0 10.996,4.921 11,10.994c0.024,41.639 0.169,90.764 0.169,92.569c0,57.287 -46.509,103.796 -103.796,103.796c-53.334,0 -97.325,-40.315 -103.143,-92.106l-0.005,-0.049c-0.316,-3.088 0.691,-6.166 2.772,-8.47c2.073,-2.295 5.017,-3.599 8.108,-3.619c2.883,-0.018 6.237,-0.027 8.989,-0.027c5.573,0 10.264,4.168 10.924,9.714c4.518,35.917 35.216,63.725 72.355,63.725c38.847,0 70.646,-30.424 72.842,-68.725c0.08,-1.402 0.121,-2.815 0.121,-4.237l-0.169,-92.557c-0.002,-2.918 1.156,-5.718 3.22,-7.782c2.063,-2.064 4.862,-3.224 7.78,-3.224l8.833,-0Z"/></g></svg>